<?xml version="1.0" encoding="UTF-8"?>
<svg xmlns="http://www.w3.org/2000/svg" xmlns:xlink="http://www.w3.org/1999/xlink" viewBox="0 0 900 1125">
  <defs>
    <style>
      @font-face {
        font-family: 'Poppins';
        src: url('fonts/Poppins-Regular.ttf') format('truetype');
        font-weight: 400; /* normal */
        font-style: normal;
      }
      @font-face {
        font-family: 'Poppins';
        src: url('fonts/Poppins-Medium.ttf') format('truetype'); /* Definida por consistencia */
        font-weight: 500; /* medium */
        font-style: normal;
      }
      @font-face {
        font-family: 'Poppins';
        src: url('fonts/Poppins-Bold.ttf') format('truetype');
        font-weight: 700; /* bold */
        font-style: normal;
      }
      .cls-1 {
        font-size: 80px;
        font-family: 'Poppins', sans-serif;
        font-weight: 400;
      }
      .cls-1, .cls-2, .cls-3 {
        font-family: 'Poppins', sans-serif;
        font-weight: 400;
      }
      .cls-4, .cls-5 {
        fill: #fff;
      }
      .cls-2 {
        font-size: 57.6px;
      }
      .cls-3 {
        font-size: 28px;
      }
      .cls-5, .cls-6 {
        fill-rule: evenodd;
      }
      .cls-7 {
        fill: none;
      }
      .cls-8 {
        clip-path: url(#clippath-1);
      }
      .cls-9 {
        fill: #cf0;
      }
      .cls-10 {
        font-family: 'Poppins', sans-serif;
        font-size: 26.6px;
        font-weight: 700;
      }
      .cls-11 {
        clip-path: url(#clippath-2);
      }
      .cls-12 {
        clip-path: url(#clippath);
      }
    </style>
    <clipPath id="clippath">
      <rect class="cls-7" x="514.03" y="860.45" width="385.97" height="264.55"/>
    </clipPath>
    <clipPath id="clippath-1">
      <rect class="cls-7" x="-404.79" y="860.45" width="385.97" height="264.55"/>
    </clipPath>
    <clipPath id="clippath-2">
      <rect class="cls-7" x="751.22" y="1013.21" width="43.5" height="43.5"/>
    </clipPath>
  </defs>
  <g id="BACKGROUND">
    <rect class="cls-4" y="0" width="900" height="1125"/>
  </g>
<g id="TEXTO">
    <g>
      {% if s4Line1 %}<text class="cls-3" transform="translate(222.42 655.00)"><tspan x="0" y="0">• {{s4Line1}}</tspan></text>{% endif %}
      {% if s4Line2 %}<text class="cls-3" transform="translate(222.42 700.00)"><tspan x="0" y="0">• {{s4Line2}}</tspan></text>{% endif %}
      {% if s4Line3 %}<text class="cls-3" transform="translate(222.42 745.00)"><tspan x="0" y="0">• {{s4Line3}}</tspan></text>{% endif %}
      {% if s4Line4 %}<text class="cls-3" transform="translate(222.42 790.00)"><tspan x="0" y="0">• {{s4Line4}}</tspan></text>{% endif %}
      {% if s4Line5 %}<text class="cls-3" transform="translate(222.42 835.00)"><tspan x="0" y="0">• {{s4Line5}}</tspan></text>{% endif %}
    </g>
    <text class="cls-10" transform="translate(95.48 114)"><tspan x="0" y="0">Rebound</tspan></text>
    <text class="cls-2" transform="translate(95.36 760.00)"><tspan x="0" y="0">04</tspan></text>
    {% if title4L1 %}<text class="cls-1" transform="translate(174.88 270.00)"><tspan x="0" y="0">{{title4L1}}</tspan></text>{% endif %}
    {% if title4L2 %}<text class="cls-1" transform="translate(174.88 360.00)"><tspan x="0" y="0">{{title4L2}}</tspan></text>{% endif %}
    {% if title4L3 %}<text class="cls-1" transform="translate(174.88 450.00)"><tspan x="0" y="0">{{title4L3}}</tspan></text>{% endif %}
    {% if title4L4 %}<text class="cls-1" transform="translate(174.88 540.00)"><tspan x="0" y="0">{{title4L4}}</tspan></text>{% endif %}
  </g>
  <g id="MISC">
    <g class="cls-12">
      <path class="cls-6" d="M696.41,860.46c.44.3.88.6,1.32.89,25.79,17.02,53.54,23.3,81.68,22.47-.87-.57-1.75-1.13-2.63-1.68-26.6.37-52.8-5.81-77.24-21.68-1.04,0-2.08,0-3.12,0ZM676.02,861.91c-.77.1-1.54.21-2.32.32,9.19,7.7,17.14,14.44,24.04,18.99,32.49,21.44,68.09,25.84,103.67,20.44l-.27-.27c-.25-.24-.5-.49-.75-.74l-.54-.52c-34.74,5.03-69.44.55-101.15-20.37-6.55-4.32-14.06-10.63-22.68-17.86ZM656.22,865.61l-.75.18c-.32.08-.64.16-.96.24l-.43.11c17.98,13.9,32.27,27.42,43.66,34.94,37.63,24.82,79.41,26.81,120.52,17.18-.5-.48-1-.95-1.5-1.43-40.3,9.23-81.2,7.12-118.06-17.2-11.14-7.35-25.05-20.45-42.48-34.03ZM636.84,871.44l-.44.16c-.31.11-.63.23-.94.34l-.65.24c5.87,3.86,11.41,7.85,16.65,11.83,19.22,14.6,34.34,29.07,46.28,36.95,38.32,25.28,80.95,26.88,122.79,16.64,4.82-1.18,9.63-2.52,14.42-3.99l-.79-.7-.73-.65c-4.42,1.34-8.87,2.57-13.32,3.65-41.37,10.12-83.53,8.59-121.42-16.4-11.92-7.86-27.01-22.31-46.19-36.88-4.95-3.76-10.17-7.53-15.67-11.19ZM617.39,879.61l-.39.19c-.3.15-.6.29-.9.44l-.63.31c13.37,7.07,25.31,15.22,35.98,23.33,19.22,14.6,34.34,29.07,46.28,36.95,38.32,25.28,80.95,26.87,122.79,16.64,10.4-2.55,20.76-5.82,30.99-9.65l-.69-.57-.85-.71c-9.87,3.65-19.84,6.79-29.86,9.24-41.37,10.12-83.53,8.59-121.42-16.4-11.92-7.86-27.01-22.31-46.19-36.88-10.45-7.94-22.11-15.91-35.11-22.89ZM598.02,890.36l-.36.23c-.28.18-.57.36-.85.54l-.59.38c21.44,8.52,39.69,20.43,55.24,32.25,19.22,14.6,34.34,29.07,46.28,36.95,38.32,25.28,80.95,26.87,122.79,16.64,16.03-3.92,31.95-9.58,47.46-16.31-.52-.4-1.04-.81-1.56-1.22-15.14,6.52-30.67,12.01-46.31,15.84-41.37,10.12-83.53,8.59-121.42-16.4-11.92-7.86-27.01-22.31-46.19-36.88-15.39-11.69-33.4-23.46-54.49-32.01ZM579.23,903.78l-.42.34c-.26.21-.52.43-.78.64l-.44.37c29.71,8.14,54,23.39,73.88,38.5,19.22,14.6,34.34,29.07,46.28,36.95,38.32,25.28,80.95,26.88,122.79,16.64,21.74-5.32,43.27-13.83,63.86-23.86-.53-.38-1.06-.77-1.59-1.16-20.23,9.8-41.35,18.12-62.69,23.34-41.37,10.12-83.53,8.59-121.42-16.4-11.92-7.86-27.01-22.31-46.19-36.88-19.77-15.02-43.87-30.17-73.28-38.46ZM561.81,919.7l-.11.12c-.23.24-.47.49-.7.73l-.64.67c37.71,6.21,67.5,24.34,91.09,42.27,19.22,14.6,34.34,29.07,46.28,36.95,38.32,25.28,80.95,26.88,122.79,16.64,27.57-6.75,54.81-18.63,80.22-32.23l-1.05-.71-.57-.39c-25.06,13.36-51.87,25.01-79.01,31.65-41.37,10.12-83.53,8.59-121.42-16.4-11.92-7.86-27.01-22.31-46.19-36.88-23.55-17.89-53.23-35.96-90.7-42.4ZM546.58,937.66l-.51.68c-.2.27-.4.54-.6.82l-.11.15c44.91,3.32,79.45,23.82,106.08,44.05,19.22,14.6,34.34,29.07,46.28,36.95,38.32,25.28,80.95,26.87,122.79,16.64,33.58-8.22,66.66-24.06,96.56-41.34l-.36-.23-1.29-.83c-29.56,17.03-62.19,32.6-95.33,40.7-41.37,10.12-83.53,8.59-121.42-16.4-11.92-7.86-27.01-22.31-46.19-36.88-26.65-20.25-61.16-40.73-105.92-44.32ZM534.15,956.98c-.32.57-.63,1.15-.94,1.73.56,0,1.12,0,1.68.01,50.07.64,87.89,22.72,116.56,44.51,19.22,14.6,34.34,29.07,46.28,36.95,38.32,25.28,80.95,26.88,122.79,16.64,39.84-9.75,78.97-30.23,112.93-51.11l-.69-.41-.99-.6c-33.64,20.63-72.3,40.8-111.66,50.43-41.37,10.12-83.53,8.59-121.42-16.4-11.92-7.86-27.01-22.31-46.19-36.88-28.92-21.97-67.09-44.22-117.59-44.86h-.76ZM524.78,977.02c-.23.59-.45,1.18-.67,1.77,3.66-.18,7.25-.24,10.79-.19,50.07.64,87.89,22.72,116.56,44.51,19.22,14.6,34.34,29.07,46.28,36.95,38.32,25.28,80.95,26.88,122.79,16.64,41.7-10.2,82.61-32.16,117.65-54.03,4-2.5,8.18-4.85,12.49-7.04-.61-.34-1.22-.68-1.82-1.02-4,2.06-7.87,4.26-11.59,6.58-34.89,21.78-75.62,43.66-117.14,53.81-41.37,10.12-83.53,8.59-121.42-16.4-11.92-7.86-27.01-22.31-46.19-36.88-28.92-21.97-67.09-44.22-117.59-44.86-3.33-.04-6.71,0-10.14.16ZM518.44,997.27l-.2.85-.21.92c5.77-.47,11.4-.66,16.87-.59,50.07.64,87.89,22.72,116.56,44.51,19.22,14.6,34.34,29.07,46.28,36.95,38.32,25.28,80.95,26.87,122.79,16.64,41.7-10.2,82.61-32.16,117.65-54.03,10.04-6.27,21.13-11.59,32.95-15.84l-.73-.41c-.29-.16-.57-.32-.86-.48l-.42-.23c-11.41,4.21-22.13,9.4-31.86,15.48-34.89,21.78-75.62,43.66-117.14,53.81-41.37,10.12-83.53,8.59-121.42-16.4-11.92-7.86-27.01-22.31-46.19-36.88-28.92-21.97-67.09-44.22-117.59-44.86-5.35-.07-10.84.11-16.48.55ZM514.94,1017.45c-.06.57-.12,1.17-.18,1.76,6.92-.69,13.63-.97,20.13-.88,50.07.64,87.89,22.72,116.56,44.5,19.22,14.6,34.34,29.07,46.28,36.95,38.32,25.28,80.95,26.87,122.79,16.64,41.7-10.2,82.61-32.16,117.65-54.03,15.93-9.94,34.51-17.51,54.49-22.22-.63-.44-1.27-.88-1.91-1.32-19.59,4.77-37.82,12.28-53.5,22.07-34.89,21.78-75.62,43.66-117.14,53.81-41.37,10.12-83.53,8.59-121.42-16.4-11.92-7.86-27.01-22.31-46.19-36.88-28.92-21.97-67.09-44.22-117.59-44.86-6.46-.08-13.11.19-19.97.86ZM514.04,1037.41c.01.59.02,1.17.04,1.74,7.16-.74,14.1-1.04,20.81-.95,50.07.64,87.89,22.72,116.56,44.51,19.22,14.6,34.34,29.07,46.28,36.95,38.32,25.28,80.95,26.88,122.79,16.64,41.7-10.2,82.61-32.16,117.65-54.03,21.31-13.3,47.38-22.35,75.16-26.01-.58-.51-1.16-1.01-1.75-1.5-27.48,3.82-53.22,12.85-74.34,26.04-34.89,21.78-75.62,43.66-117.14,53.81-41.37,10.12-83.53,8.59-121.42-16.4-11.92-7.86-27.01-22.31-46.19-36.88-28.92-21.97-67.09-44.22-117.59-44.86-6.74-.09-13.69.21-20.87.95ZM515.54,1057.13c.08.58.16,1.15.24,1.72,6.56-.62,12.93-.86,19.11-.79,50.07.64,87.89,22.72,116.56,44.51,19.22,14.6,34.34,29.07,46.28,36.95,38.32,25.28,80.95,26.88,122.79,16.64,41.7-10.2,82.61-32.16,117.65-54.03,26.03-16.25,59.14-26.14,93.84-27.63-.5-.55-1-1.1-1.52-1.65-34.48,1.71-67.33,11.64-93.24,27.81-34.89,21.78-75.62,43.66-117.14,53.81-41.37,10.12-83.53,8.6-121.42-16.4-11.92-7.86-27.01-22.31-46.19-36.88-28.92-21.97-67.09-44.22-117.59-44.86-6.26-.08-12.72.17-19.37.8ZM519.29,1076.68l.19.76.24.95c5.18-.37,10.23-.52,15.17-.46,50.07.64,87.89,22.72,116.56,44.5,19.22,14.6,34.34,29.07,46.28,36.95,38.32,25.28,80.95,26.87,122.79,16.64,41.7-10.2,82.61-32.16,117.65-54.03,29.96-18.7,69.32-28.99,109.64-27.73-.41-.59-.82-1.17-1.24-1.76-40.24-1.01-79.42,9.34-109.33,28.01-34.89,21.78-75.62,43.66-117.14,53.81-41.37,10.12-83.53,8.59-121.42-16.4-11.92-7.86-27.01-22.31-46.19-36.88-28.92-21.97-67.09-44.22-117.59-44.86-5.08-.06-10.29.09-15.62.48ZM525.24,1096.21c.2.56.41,1.14.63,1.71,3.05-.12,6.06-.15,9.02-.12,50.07.64,87.89,22.72,116.56,44.51,19.22,14.6,34.34,29.07,46.28,36.95,38.32,25.28,80.95,26.88,122.79,16.64,41.7-10.2,82.61-32.16,117.65-54.03,33.02-20.61,77.44-31,122.02-26.98-.3-.6-.62-1.21-.93-1.81-44.61-3.79-88.96,6.69-122.01,27.31-34.89,21.78-75.62,43.66-117.14,53.81-41.37,10.12-83.53,8.59-121.42-16.4-11.92-7.86-27.01-22.31-46.19-36.88-28.92-21.97-67.09-44.22-117.59-44.86-3.17-.04-6.4,0-9.67.14ZM533.48,1115.93c.27.56.55,1.15.84,1.74h.58c50.07.64,87.89,22.73,116.56,44.51,19.22,14.6,34.34,29.07,46.28,36.95,38.32,25.28,80.95,26.88,122.79,16.64,41.7-10.2,82.61-32.16,117.65-54.03,35.17-21.95,83.27-32.31,130.71-26.01-.2-.6-.4-1.21-.61-1.82-47.58-6.12-95.75,4.33-131.02,26.35-34.89,21.78-75.62,43.66-117.14,53.81-41.37,10.12-83.53,8.59-121.42-16.4-11.92-7.86-27.01-22.31-46.19-36.88-28.92-21.97-67.09-44.22-117.59-44.86-.47,0-.95-.01-1.43-.01ZM544.28,1136.18l.48.82.6,1c44.92,3.32,79.45,23.82,106.09,44.05,19.22,14.6,34.34,29.07,46.28,36.95,38.32,25.28,80.95,26.87,122.79,16.64,41.7-10.2,82.61-32.16,117.65-54.03,36.41-22.73,86.69-33.02,135.74-25.28-.09-.59-.19-1.19-.3-1.79-49.31-7.64-99.77,2.76-136.36,25.59-34.89,21.78-75.62,43.66-117.14,53.81-41.37,10.12-83.53,8.59-121.42-16.4-11.92-7.86-27.01-22.31-46.19-36.88-27.1-20.59-62.33-41.42-108.23-44.49ZM558.3,1157.57l.59.82.84,1.16c38.01,6.12,68,24.35,91.72,42.37,19.22,14.6,34.34,29.07,46.28,36.95,38.32,25.28,80.95,26.87,122.79,16.64,41.7-10.2,82.61-32.16,117.65-54.03,36.78-22.96,87.71-33.23,137.24-25.04v-.43c0-.26,0-.51,0-.77v-.55c-49.87-8.18-101.13,2.19-138.17,25.31-34.89,21.78-75.62,43.66-117.14,53.81-41.37,10.12-83.53,8.59-121.42-16.4-11.92-7.86-27.01-22.31-46.19-36.88-24.28-18.44-55.07-37.08-94.21-42.97ZM576.73,1181.26c.56.75,1.1,1.5,1.64,2.25,29.35,8.2,53.38,23.31,73.08,38.28,19.22,14.6,34.34,29.07,46.28,36.95,38.32,25.28,80.95,26.88,122.79,16.64,41.7-10.2,82.61-32.16,117.65-54.03,36.31-22.67,86.42-32.97,135.33-25.34.11-.57.21-1.13.3-1.7-49.36-7.7-99.91,2.69-136.56,25.56-34.89,21.78-75.62,43.66-117.14,53.81-41.37,10.12-83.53,8.59-121.42-16.4-11.92-7.86-27.01-22.31-46.19-36.88-20.33-15.45-45.23-31.03-75.78-39.14ZM590.77,1205.5c.32.73.62,1.45.92,2.18,23.41,8.59,43.12,21.33,59.76,33.97,19.22,14.6,34.34,29.07,46.28,36.95,38.32,25.28,80.95,26.88,122.79,16.64,41.7-10.2,82.61-32.16,117.65-54.03,34.99-21.84,82.79-32.21,130.01-26.1l.1-.26c.09-.25.18-.5.28-.75l.23-.65c-47.75-6.26-96.14,4.19-131.54,26.28-34.89,21.78-75.62,43.66-117.14,53.81-41.37,10.12-83.53,8.59-121.42-16.4-11.92-7.86-27.01-22.31-46.19-36.88-17.12-13.01-37.49-26.11-61.74-34.77ZM598.36,1228.27l.17.71c.07.29.14.57.21.86l.12.51c20.3,8.43,37.69,19.84,52.6,31.17,19.22,14.6,34.34,29.07,46.28,36.95,38.32,25.28,80.95,26.87,122.79,16.64,41.7-10.2,82.61-32.16,117.65-54.03,32.77-20.45,76.77-30.84,120.99-27.07l.36-.61c.14-.24.28-.49.42-.73l.17-.3c-44.89-4-89.6,6.48-122.86,27.24-34.89,21.78-75.62,43.66-117.14,53.81-41.37,10.12-83.53,8.59-121.42-16.4-11.92-7.86-27.01-22.31-46.19-36.88-15.31-11.63-33.21-23.34-54.15-31.87ZM991.07,1297.07c-19.72,4.78-38.06,12.31-53.82,22.14-2.7,1.69-5.44,3.37-8.21,5.06,2.57-.86,5.1-1.74,7.59-2.63l1.53-.96c13.88-8.66,29.77-15.52,46.84-20.26,2.05-1.11,4.07-2.23,6.05-3.36ZM602.42,1249.85l.09.65c.04.29.08.57.12.86l.07.51c18.66,8.24,34.79,18.92,48.76,29.52,19.22,14.6,34.34,29.07,46.28,36.95,38.32,25.28,80.95,26.87,122.79,16.64,41.7-10.2,82.61-32.16,117.65-54.03,29.4-18.35,67.85-28.6,107.41-27.79l.33-.39c.19-.23.39-.47.58-.7l.49-.6c-40.39-1.09-79.72,9.27-109.73,28-34.89,21.78-75.62,43.66-117.14,53.81-41.37,10.12-83.53,8.59-121.42-16.4-11.92-7.86-27.01-22.31-46.19-36.88-14.31-10.87-30.88-21.81-50.08-30.16ZM1027.24,1271.72c-33.28,2.16-64.89,11.96-89.98,27.63-26.76,16.71-56.96,33.47-88.32,44.96,3.2-.57,6.35-1.16,9.46-1.77,28.29-11.31,55.45-26.53,79.78-41.72,24.28-15.16,54.74-24.79,86.87-27.22.74-.62,1.47-1.25,2.19-1.88ZM604.84,1270.79l.02.22.18,1.78c17.67,8.08,33.04,18.31,46.42,28.47,19.22,14.6,34.34,29.07,46.28,36.95,27.33,18.03,56.84,24.01,86.71,22.25,1.74-.73,3.51-1.44,5.33-2.14-31.34,2.83-62.43-2.66-91.08-21.56-11.92-7.86-27.01-22.31-46.19-36.88-13.7-10.41-29.48-20.88-47.67-29.09ZM607.04,1291.67l.13,1.05.12.99c16.73,7.91,31.36,17.7,44.17,27.43,19.22,14.6,34.34,29.07,46.28,36.95,16.13,10.64,33.02,17.08,50.3,20.22l.98-.5c.38-.19.76-.39,1.14-.58l.46-.24c-17.84-2.93-35.3-9.38-51.92-20.35-11.92-7.86-27.01-22.31-46.19-36.88-13.15-9.99-28.21-20.04-45.47-28.08ZM618.82,1337.37c.46.93.93,1.86,1.42,2.77,11.46,6.43,21.83,13.6,31.21,20.73,12.73,9.67,23.66,19.28,33.06,26.96,1.39.41,2.77.77,4.12,1.1-10.07-8.02-21.99-18.7-36.13-29.45-10.07-7.65-21.26-15.33-33.69-22.12ZM610.6,1313.24c.17.73.33,1.46.51,2.19,15.15,7.56,28.53,16.59,40.35,25.57,19.22,14.6,34.34,29.07,46.28,36.95,7.02,4.63,14.19,8.47,21.48,11.59.97-.21,1.93-.44,2.88-.68-7.95-3.23-15.76-7.31-23.41-12.36-11.92-7.86-27.01-22.31-46.19-36.88-12.24-9.3-26.13-18.64-41.91-26.38Z"/>
    </g>
  </g>
   <g id="ICONOS">
    <!-- Reemplazado: Círculo con flecha del template 2 -->
    <circle class="cls-6" cx="772.97" cy="997.93" r="47.6"/>
    <path class="cls-9" d="M792.32,993.95c-7.2-7.2-14.41-14.4-21.61-21.61-5.13-5.13-13.07,2.85-7.91,8.01,5.86,5.86,11.74,11.73,17.6,17.6-5.88,5.88-11.76,11.76-17.64,17.64-5.13,5.13,2.85,13.07,8.01,7.91,7.2-7.2,14.4-14.4,21.6-21.61,2.15-2.16,2.09-5.8-.05-7.95Z"/>
  </g>
</svg>